<?xml version="1.0" encoding="UTF-8" standalone="no"?>
<!-- Created with Inkscape (http://www.inkscape.org/) -->

<svg
   version="1.1"
   id="svg1"
   width="340"
   height="340"
   viewBox="0 0 340.00001 340.00001"
   sodipodi:docname="logo_fjader_media_.svg"
   inkscape:version="1.3 (0e150ed6c4, 2023-07-21)"
   inkscape:export-filename="logo_fjader_media_.png"
   inkscape:export-xdpi="96"
   inkscape:export-ydpi="96"
   xmlns:inkscape="http://www.inkscape.org/namespaces/inkscape"
   xmlns:sodipodi="http://sodipodi.sourceforge.net/DTD/sodipodi-0.dtd"
   xmlns="http://www.w3.org/2000/svg"
   xmlns:svg="http://www.w3.org/2000/svg">
  <defs
     id="defs1">
    <clipPath
       clipPathUnits="userSpaceOnUse"
       id="clipPath4">
      <circle
         style="opacity:0.413044;fill:#ff0000;stroke:#ff0000;stroke-width:1.88976;stroke-linejoin:bevel"
         id="circle4"
         cx="447.79636"
         cy="356.19272"
         r="151.36224" />
    </clipPath>
    <clipPath
       clipPathUnits="userSpaceOnUse"
       id="clipPath5">
      <rect
         style="opacity:0.413044;fill:#ff0000;stroke:#ff0000;stroke-width:1.85364;stroke-linejoin:bevel"
         id="rect5"
         width="300.17291"
         height="154.9538"
         x="297.52805"
         y="248.76166"
         ry="0" />
    </clipPath>
  </defs>
  <sodipodi:namedview
     id="namedview1"
     pagecolor="#ffffff"
     bordercolor="#666666"
     borderopacity="1.0"
     inkscape:showpageshadow="2"
     inkscape:pageopacity="0.0"
     inkscape:pagecheckerboard="0"
     inkscape:deskcolor="#d1d1d1"
     inkscape:zoom="2.5435669"
     inkscape:cx="103.20153"
     inkscape:cy="162.56698"
     inkscape:window-width="2560"
     inkscape:window-height="1387"
     inkscape:window-x="1072"
     inkscape:window-y="-8"
     inkscape:window-maximized="1"
     inkscape:current-layer="layer2" />
  <g
     inkscape:groupmode="layer"
     id="layer2"
     inkscape:label="bg">
    <circle
       style="opacity:1;fill:#ffffff;stroke:#000000;stroke-width:2.07405;stroke-linejoin:bevel"
       id="path2"
       cx="170"
       cy="170"
       r="162.67142" />
  </g>
  <g
     inkscape:groupmode="layer"
     id="layer1"
     inkscape:label="feather"
     style="display:inline"
     transform="translate(-334.47245,-132.59003)">
    <path
       style="fill:#000000"
       d="m 324.04794,395.9538 c -0.0968,-17.58192 7.33774,-55.52091 14.77519,-75.39927 l 2.57671,-6.88688 7.63341,-3.42137 c 6.10356,-2.73568 20.44787,-6.18063 25.96674,-6.23622 0.55,-0.006 1,-0.61007 1,-1.3434 0,-2.01187 -14.6884,-1.60052 -22.05921,0.61777 -3.56566,1.07311 -6.76453,1.6696 -7.10859,1.32553 -0.79601,-0.796 10.51864,-17.17166 15.97196,-23.11618 l 4.13386,-4.50622 7.8623,0.71293 c 4.73342,0.42921 11.37168,2.35516 16.68069,4.83955 9.86301,4.61546 9.85233,4.61234 9.85233,2.87607 0,-1.60992 -20.86785,-12.08278 -24.07571,-12.08278 -3.36419,0 -4.3,-2.02834 -1.8673,-4.0473 l 2.02763,-1.68278 5.62435,1.68403 c 5.60335,1.67774 19.7015,8.54903 26.57046,12.95016 1.98702,1.27313 4.08702,1.83676 4.66667,1.25249 1.68378,-1.69721 -6.01392,-7.18013 -18.56875,-13.22615 -6.39246,-3.07842 -11.64246,-6.00029 -11.66667,-6.49305 -0.0553,-1.12586 15.78431,-9.10407 18.07485,-9.10407 0.93113,0 7.39689,2.64738 14.36838,5.88307 21.80527,10.12052 24.24854,9.62457 6.23435,-1.26548 -9.21612,-5.57138 -12.75183,-8.61759 -10.00238,-8.61759 0.39557,0 6.24557,-0.6131 13,-1.36244 19.78877,-2.19538 30.54571,1.68662 54.4005,19.63223 5.24851,3.94837 9.87768,6.84392 10.28704,6.43456 1.25194,-1.25194 -7.90662,-9.85766 -17.39896,-16.3487 -4.94571,-3.38196 -8.78703,-6.3542 -8.53626,-6.60497 0.25077,-0.25077 4.59726,0.82266 9.65887,2.38539 13.39726,4.13629 30.00179,12.90353 45.20292,23.86728 13.01968,9.39038 27.35605,17.32682 31.30293,17.32893 1.08328,5.8e-4 -1.31672,-2.12767 -5.33333,-4.72943 -4.01661,-2.60177 -13.05109,-10.68551 -20.07662,-17.96387 -8.0758,-8.36644 -14.94099,-14.21664 -18.66666,-15.90689 -3.24114,-1.47044 -5.11908,-2.6867 -4.1732,-2.70281 4.25504,-0.0725 13.92347,6.60157 25.32558,17.48199 11.32825,10.80993 24.6882,21.1554 27.31971,21.1554 1.64116,0 -19.59104,-24.38275 -27.41949,-31.48814 l -6.94558,-6.30407 5.86426,3.22944 c 3.47075,1.91133 11.16639,9.21566 18.85484,17.8961 7.14483,8.06667 15.42503,17.00829 18.40047,19.87027 l 5.40987,5.2036 22.40194,-0.91465 c 63.05062,-2.57429 171.05953,-11.17759 195.42341,-15.56618 51.60272,-9.29503 83.76711,-45.12018 87.24014,-97.16926 l 0.83916,-12.57623 -4.72266,2.91877 c -6.63055,4.0979 -23.24286,10.79391 -29.10422,11.73118 -5.73842,0.91761 -10.05467,-0.98942 -11.32935,-5.00559 -0.4965,-1.56434 -1.28714,-2.29429 -1.75697,-1.62211 -1.88225,2.69289 -8.68975,7.1302 -10.93881,7.1302 -3.61993,0 -6.89723,-3.97766 -6.21553,-7.54378 0.74053,-3.87383 1.89049,-3.9861 -14.95708,1.46035 -7.79756,2.52079 -17.1546,4.9656 -20.79343,5.43292 l -6.61605,0.84968 -2.66667,-2.0038 -2.66666,-2.0038 2.14696,-5.76245 c 1.18083,-3.16935 2.59503,-6.81245 3.14265,-8.09578 1.50996,-3.53851 -0.59545,-2.90656 -12.791,3.83927 -27.81998,15.38829 -42.49861,17.5027 -42.49861,6.12178 v -3.5544 l -1.99901,2.85398 c -3.27029,4.669 -10.98179,8.7836 -14.70885,7.84817 l -3.29214,-0.82628 v -4.64126 c 0,-5.62172 1.27473,-5.61441 -15.87324,-0.0909 -27.09658,8.72797 -37.46847,7.71846 -37.45511,-3.64555 0.0102,-8.64068 6.92707,-15.58304 17.50262,-17.56703 l 4.74878,-0.89087 2.2025,2.20249 2.2025,2.2025 -1.36125,2.54352 c -1.70475,3.18535 -4.63591,4.77571 -11.00377,5.97033 l -4.98788,0.93573 -0.80313,3.19993 c -0.46117,1.83744 -0.0496,4.10791 0.96665,5.33239 l 1.76979,2.13247 6.7541,-0.79381 c 3.71476,-0.4366 13.33918,-2.879 21.3876,-5.42756 l 14.63349,-4.63375 5.24179,-5.36808 c 5.64383,-5.77981 11.10504,-8.21523 17.31309,-7.72075 l 3.90519,0.31106 7.58746,-16.32037 c 8.15523,-17.54165 9.91489,-20.3463 12.76541,-20.3463 3.03562,0 2.28292,2.45879 -8.91947,29.13671 -5.91591,14.08844 -10.56078,26.64614 -10.32193,27.90599 1.07047,5.64632 9.72141,2.51242 45.07814,-16.33011 9.70793,-5.17361 9.37219,-5.07024 11.69008,-3.59901 l 1.69009,1.07275 -4.00955,9.72326 c -5.95092,14.43112 -5.22195,14.68167 19.40523,6.66958 l 16.6623,-5.42083 5.76687,-5.76687 c 3.17178,-3.17178 7.61859,-6.17357 9.88181,-6.67066 l 4.11494,-0.90379 6.07438,2.68699 6.07438,2.68698 -2.67527,6.7872 c -3.4443,8.73827 -3.45496,12.02181 -0.039,12.02181 3.74566,0 19.43996,-6.08456 27.6769,-10.73012 3.83889,-2.1651 7.28889,-3.93654 7.66667,-3.93654 1.5497,0 0.5387,23.4964 -1.41875,32.97304 -8.49992,41.15071 -34.64439,68.98837 -75.45923,80.34617 -21.54866,5.99648 -118.8551,14.62204 -210.16476,18.62969 -16.35129,0.71767 -30.34643,1.68606 -31.1003,2.15198 -1.36557,0.84397 -6.5839,0.47598 -69.82608,-4.92407 l -33.32266,-2.84531 -16.01067,0.72451 c -17.59542,0.79623 -28.06488,3.11296 -43.59197,9.64627 -10.26212,4.31797 -31.75204,17.55954 -31.75204,19.56483 0,2.03179 2.65119,1.043 10.26861,-3.82981 27.183,-17.38876 55.3161,-22.74155 97.73139,-18.59503 28.52775,2.78887 59.00253,4.77781 73.60393,4.80376 12.94362,0.023 17.40014,1.44091 19.58237,6.2304 3.6891,8.09667 0.42417,15.23129 -11.53795,25.21312 l -7.64835,6.38219 5.53887,-5.90254 c 8.38738,-8.93808 12.46113,-15.72332 12.46113,-20.75527 0,-2.46433 -0.6,-4.4806 -1.33333,-4.4806 -0.73334,0 -1.33334,1.71627 -1.33334,3.81393 0,6.79461 -6.9369,15.37597 -19.66666,24.32881 -8.06025,5.66876 -7.01872,3.89131 1.62934,-2.78062 7.35096,-5.67122 15.37066,-16.05126 15.37066,-19.89451 0,-1.25964 -1.57606,-0.16317 -4.01029,2.78997 -8.02956,9.74125 -25.10424,20.89038 -35.32305,23.06463 -2.2,0.46809 -0.6855,-0.56586 3.36555,-2.29767 8.49022,-3.62955 16.60098,-9.00899 25.69237,-17.04039 7.46148,-6.59153 7.48482,-8.79723 0.0304,-2.8781 -7.02447,5.57777 -22.53124,13.1063 -32.64665,15.84992 l -8.44172,2.28966 -16,0.0439 c -8.8,0.0241 -19.51681,-0.45767 -23.81514,-1.07064 l -7.81514,-1.1145 7.12524,-3.30117 c 8.7352,-4.04708 18.40812,-11.17232 18.46382,-13.60078 l 0.0412,-1.7976 -4.33333,2.89883 c -13.77805,9.21699 -29.87175,13.89441 -43.13226,12.53583 l -8.47577,-0.86837 6.79975,-8.54536 c 8.98553,-11.29227 7.71148,-11.75705 -2.89452,-1.05593 l -8.5535,8.63021 h -8.30003 -8.30004 l 2.63176,-7.64935 c 4.11924,-11.97277 2.50914,-12.26594 -5.44206,-0.99088 l -7.33333,10.39891 -4.87821,1.67536 -4.87821,1.67536 3.90585,-9.47178 c 5.59739,-13.5738 4.18575,-13.56987 -3.10423,0.009 l -6.27452,11.68708 -6.80728,5.81697 -6.80729,5.81697 0.75928,-5.1503 0.75929,-5.15031 -2.33734,6.27824 c -2.59096,6.95947 -9.09527,14.27906 -20.67067,23.2616 l -7.66667,5.94935 -0.13648,-3.07793 -0.13648,-3.07793 -0.97717,4.08261 c -1.20159,5.02021 -7.08672,15.99118 -11.42708,21.30219 l -3.22689,3.94854 z M 142.22222,251.11111 c -1.80466,-1.80467 -0.812,-12.03142 1.63341,-16.82795 4.39886,-8.6281 12.51845,-18.30944 21.99416,-26.22459 l 9.18313,-7.67075 5.8019,-14.4311 c 3.19105,-7.93711 5.54884,-14.68417 5.23954,-14.99347 -0.3093,-0.3093 -2.79469,0.17437 -5.52309,1.07483 -6.40442,2.11365 -27.52431,1.04226 -34.07578,-1.72863 l -4.85784,-2.05459 -1.32838,8.9501 c -2.66428,17.95077 -10.95107,30.33278 -21.22256,31.71048 l -5.25584,0.70495 -2.23877,-2.23877 c -3.73514,-3.73514 -2.59935,-9.51214 5.87088,-29.86108 l 8.10965,-19.48268 -1.64213,-4.9757 -1.64212,-4.97569 1.69573,-2.04324 C 124.89677,144.91945 126.98926,144 128.6141,144 h 2.95426 l 8.38763,-20 8.38762,-20 h 3.08284 c 5.11403,0 4.83373,1.41637 -4.81437,24.32758 l -9.2933,22.06866 1.8215,7.13521 1.82149,7.13521 6.51911,2.54371 6.51912,2.54372 11.33333,0.12295 11.33333,0.12296 9.08186,-3.85148 c 12.39949,-5.25844 12.98498,-4.16546 6.3319,11.82027 -6.75609,16.23325 -6.80824,15.86083 1.58624,11.32925 3.85,-2.07834 12.4,-5.94781 19,-8.59882 l 12,-4.82001 5.33759,-5.22758 c 2.93567,-2.87517 7.27325,-5.90236 9.63907,-6.72709 l 4.30149,-1.49951 6.02759,2.30196 c 6.85158,2.61664 7.19135,3.91194 3.28492,12.52298 -1.47626,3.25415 -2.3531,6.77924 -1.94853,7.83353 l 0.73557,1.91689 5.64449,-0.90237 c 3.10446,-0.4963 11.60298,-2.97259 18.88559,-5.50287 l 13.24111,-4.60051 4.27783,-4.6703 c 5.30763,-5.79458 12.82924,-9.10619 18.06891,-7.95537 l 3.88605,0.85353 3.43511,-7.77792 c 1.88931,-4.27785 5.7955,-12.72792 8.68041,-18.77792 l 5.24531,-11 h 2.62874 c 3.7509,0 3.76805,-0.0589 -8.62945,29.6216 l -11.25819,26.9529 1.42145,1.71275 c 2.13221,2.56915 4.82253,2.16539 21.29608,-3.19611 l 15.0828,-4.90885 5.82473,-5.74233 c 3.54661,-3.49644 7.94623,-6.31359 11.24904,-7.20295 l 5.42431,-1.46061 3.10899,1.41655 c 6.35576,2.89588 0.9781,9.80634 -8.93445,11.48106 l -5.29827,0.89514 -0.81137,3.23274 c -2.84402,11.33146 13.74901,8.12478 45.78922,-8.84899 14.89305,-7.88981 19.03052,-8.9008 19.03052,-4.65011 v 2.05314 l 2.53118,-1.58074 c 1.39215,-0.86942 3.30246,-3.91774 4.24513,-6.77406 1.6872,-5.11228 5.51235,-9.00113 8.8537,-9.00113 3.01563,0 1.81751,5.1105 -2.29667,9.79629 -6.91848,7.87972 -4.73534,11.53705 6.88673,11.53705 4.22771,0 10.44666,-0.93702 13.81989,-2.08226 3.37324,-1.14525 6.8442,-1.81222 7.71327,-1.48216 2.34901,0.89211 -7.56953,4.83109 -16.16688,6.42039 l -7.51198,1.38867 -4.95666,-1.48505 c -3.0243,-0.9061 -5.29849,-2.56204 -5.83346,-4.2476 l -0.8768,-2.76255 -4.01261,3.79194 c -2.20694,2.08557 -5.79059,6.91484 -7.96367,10.7317 -3.76128,6.60644 -7.58338,9.48695 -10.33311,7.78752 -0.715,-0.4419 0.39958,-4.80065 2.57911,-10.08607 2.11104,-5.11933 3.26139,-9.30787 2.55632,-9.30787 -0.70506,0 -7.26363,3.00176 -14.57459,6.67057 -29.45454,14.78098 -45.47031,16.93901 -47.576,6.41058 -0.92024,-4.60119 0.92439,-4.75864 -18.57598,1.58552 -9.01635,2.93333 -17.7854,5.33333 -19.48679,5.33333 -4.73887,0 -9.01395,-3.65148 -9.06448,-7.74227 l -0.0444,-3.59106 -2.28898,2.67815 c -3.78316,4.42639 -9.82869,8.65518 -12.37354,8.65518 -3.61993,0 -6.89724,-3.97766 -6.21553,-7.54378 0.73579,-3.84907 1.98968,-3.9816 -13.56963,1.43424 -7.20076,2.50643 -15.87693,4.97472 -19.28038,5.48509 l -6.18808,0.92796 -3.3309,-2.18249 c -1.832,-1.20037 -3.33091,-3.13082 -3.33091,-4.28988 v -2.10738 l -4.71306,4.13812 C 230.88726,192.73287 224,191.41732 224,183.86323 v -4.04293 l -3,0.88634 c -12.86784,3.80176 -39.66667,18.99929 -39.66667,22.49484 0,2.74017 -17.02833,35.77089 -20.34549,39.46518 -7.08664,7.89233 -15.52191,11.68816 -18.76562,8.44445 z m 360.49135,-44.35679 c -4.75792,-8.89025 6.60904,-38.69556 25.97992,-68.12198 7.54618,-11.46345 15.14634,-29.4851 18.97144,-44.98545 l 2.10584,-8.533455 -1.24974,-3.553619 c -0.68736,-1.954491 -2.85257,-4.321834 -4.81158,-5.260763 l -3.56184,-1.707144 -8.83776,1.411839 c -33.95393,5.424167 -48.79642,20.998779 -27.47991,28.835382 7.30103,2.68408 9.7675,4.49724 6.10338,4.48676 -5.52143,-0.0158 -13.21788,-3.07198 -16.82826,-6.68236 -11.38625,-11.386252 5.38251,-27.956375 32.56873,-32.182922 l 10.20314,-1.586247 5.14138,1.540395 c 2.82776,0.847217 6.60544,3.097689 8.39486,5.001049 l 3.25349,3.460654 v 10.895103 c 0,5.992306 -0.49984,12.854938 -1.11074,15.250288 l -1.11074,4.35518 14.47298,-14.355182 C 585.34848,74.757822 600.0008,66.964907 607.33332,72.463126 l 2.66667,1.999574 -0.1501,9.101982 -0.1501,9.101982 -4.60368,14.004436 -4.60367,14.00443 9.67206,-9.54733 c 10.30003,-10.16718 22.79003,-17.4613 32.01939,-18.699218 l 5.16417,-0.69266 2.6593,2.948766 2.65929,2.948767 -0.25044,8.849735 c -0.33293,11.76409 -3.73089,21.89263 -21.86433,65.17259 l -15.21856,36.32285 -3.66667,0.0105 c -2.01666,0.006 -3.66666,-0.65314 -3.66666,-1.46425 0,-0.8111 7.57841,-19.5611 16.84091,-41.66666 23.47913,-56.03446 26.63598,-66.274753 21.08739,-68.403948 -7.33939,-2.816386 -37.37126,20.627638 -50.07286,39.088788 -2.1299,3.0957 -10.10628,20.51485 -17.72529,38.70922 l -13.85274,33.08067 -4.13871,0.41781 c -2.27628,0.2298 -4.1387,0.13 -4.1387,-0.22176 0,-0.35177 9.37358,-23.03979 20.83018,-50.41781 25.24253,-60.322496 28.50315,-69.000321 28.50315,-75.858474 v -5.336791 l -2.17408,-0.834274 c -4.39773,-1.687565 -12.35316,4.56297 -35.15925,27.624399 l -23.33333,23.59457 -16.52529,40.10812 c -9.08891,22.05946 -17.15891,40.74174 -17.93333,41.51616 -2.2298,2.2298 -5.98876,1.64249 -7.49447,-1.17096 z M 102,112.46301 c 9.91277,-7.87636 60.62284,-29.607983 83.70353,-35.870846 50.26482,-13.639184 82.39739,-5.697107 66.38453,16.407998 -7.24139,9.996448 -10.34069,9.467398 -4.028,-0.687584 2.42521,-3.901353 3.97694,-8.006819 3.71789,-9.836569 l -0.44462,-3.140488 -5.33334,-1.798318 -5.33333,-1.798318 -12.78628,0.728424 C 198.27092,78.154136 152.18334,91.223367 116.13667,108.1549 101.99084,114.79936 97.235889,116.24841 102,112.46301 Z"
       id="path1"
       clip-path="url(#clipPath5)"
       transform="translate(56.857948,-23.648526)" />
  </g>
</svg>
